G04*
G04 #@! TF.GenerationSoftware,Altium Limited,Altium Designer,18.1.6 (161)*
G04*
G04 Layer_Color=255*
%FSLAX44Y44*%
%MOMM*%
G71*
G01*
G75*
%ADD15R,1.6510X1.2700*%
%ADD16R,1.4000X0.8000*%
%ADD17R,1.2700X1.9000*%
%ADD33R,1.0000X1.5000*%
G04:AMPARAMS|DCode=34|XSize=1mm|YSize=1.5mm|CornerRadius=0mm|HoleSize=0mm|Usage=FLASHONLY|Rotation=180.000|XOffset=0mm|YOffset=0mm|HoleType=Round|Shape=Octagon|*
%AMOCTAGOND34*
4,1,8,0.2500,-0.7500,-0.2500,-0.7500,-0.5000,-0.5000,-0.5000,0.5000,-0.2500,0.7500,0.2500,0.7500,0.5000,0.5000,0.5000,-0.5000,0.2500,-0.7500,0.0*
%
%ADD34OCTAGOND34*%

%ADD35O,1.6000X2.0000*%
%ADD36R,2.0000X2.0000*%
%ADD37P,2.1648X8X292.5*%
%ADD38R,2.1000X2.1000*%
%ADD39C,2.1000*%
%ADD40C,2.0000*%
%ADD41C,8.0000*%
D15*
X234950Y124460D02*
D03*
Y154940D02*
D03*
X209550Y124460D02*
D03*
Y154940D02*
D03*
X184150Y124460D02*
D03*
Y154940D02*
D03*
X146050Y124460D02*
D03*
Y154940D02*
D03*
X120650Y124460D02*
D03*
Y154940D02*
D03*
X95250Y124460D02*
D03*
Y154940D02*
D03*
D16*
X177500Y95250D02*
D03*
X203500Y104250D02*
D03*
Y86250D02*
D03*
X146350Y95250D02*
D03*
X120350Y86250D02*
D03*
Y104250D02*
D03*
D17*
X193050Y184150D02*
D03*
X226050D02*
D03*
X137150D02*
D03*
X104150D02*
D03*
D33*
X215900Y38100D02*
D03*
X133350D02*
D03*
D34*
X203200D02*
D03*
X190500D02*
D03*
X120650D02*
D03*
X107950D02*
D03*
D35*
X263050Y63500D02*
D03*
X283050D02*
D03*
X60800D02*
D03*
X40800D02*
D03*
D36*
X107950Y266700D02*
D03*
D37*
Y241300D02*
D03*
D38*
X266700Y254000D02*
D03*
X63500D02*
D03*
D39*
X296780D02*
D03*
X33420D02*
D03*
D40*
X298450Y107000D02*
D03*
Y210500D02*
D03*
X266700Y107000D02*
D03*
Y210500D02*
D03*
X63500Y107000D02*
D03*
Y210500D02*
D03*
X31750Y107000D02*
D03*
Y210500D02*
D03*
X139700Y241300D02*
D03*
Y266700D02*
D03*
D41*
X203200Y254000D02*
D03*
M02*
