G04*
G04 #@! TF.GenerationSoftware,Altium Limited,Altium Designer,18.1.6 (161)*
G04*
G04 Layer_Color=65535*
%FSLAX44Y44*%
%MOMM*%
G71*
G01*
G75*
%ADD10C,0.2540*%
%ADD11C,0.2000*%
%ADD12C,0.6000*%
%ADD13C,0.2500*%
%ADD14C,0.1500*%
G36*
X188906Y5945D02*
X185394D01*
Y8478D01*
X188906D01*
Y5945D01*
D02*
G37*
G36*
X271854Y-5890D02*
X268512D01*
Y-4826D01*
X268470Y-4847D01*
X268363Y-4932D01*
X268193Y-5060D01*
X267980Y-5209D01*
X267725Y-5379D01*
X267470Y-5549D01*
X267172Y-5720D01*
X266895Y-5847D01*
X266852Y-5869D01*
X266767Y-5890D01*
X266618Y-5954D01*
X266405Y-5996D01*
X266150Y-6060D01*
X265852Y-6124D01*
X265533Y-6145D01*
X265171Y-6167D01*
X264979D01*
X264851Y-6145D01*
X264702Y-6124D01*
X264511Y-6082D01*
X264064Y-5975D01*
X263596Y-5805D01*
X263340Y-5698D01*
X263085Y-5549D01*
X262829Y-5379D01*
X262574Y-5188D01*
X262340Y-4975D01*
X262127Y-4719D01*
X262106Y-4698D01*
X262084Y-4655D01*
X262021Y-4570D01*
X261957Y-4442D01*
X261872Y-4293D01*
X261765Y-4123D01*
X261659Y-3910D01*
X261574Y-3676D01*
X261467Y-3399D01*
X261361Y-3101D01*
X261254Y-2782D01*
X261169Y-2442D01*
X261105Y-2059D01*
X261041Y-1654D01*
X261020Y-1228D01*
X260999Y-781D01*
Y-760D01*
Y-718D01*
Y-654D01*
Y-569D01*
X261020Y-441D01*
Y-313D01*
X261041Y6D01*
X261084Y368D01*
X261169Y772D01*
X261254Y1177D01*
X261382Y1560D01*
Y1581D01*
X261403Y1602D01*
X261446Y1730D01*
X261531Y1922D01*
X261659Y2177D01*
X261808Y2454D01*
X261978Y2752D01*
X262191Y3050D01*
X262425Y3327D01*
X262446Y3348D01*
X262531Y3433D01*
X262659Y3561D01*
X262851Y3710D01*
X263064Y3880D01*
X263319Y4072D01*
X263617Y4242D01*
X263936Y4391D01*
X263958D01*
X263979Y4412D01*
X264085Y4455D01*
X264277Y4519D01*
X264511Y4604D01*
X264788Y4668D01*
X265086Y4731D01*
X265405Y4774D01*
X265746Y4795D01*
X266065D01*
X266299Y4774D01*
X266533Y4753D01*
X266788Y4710D01*
X267044Y4646D01*
X267278Y4582D01*
X267299D01*
X267384Y4540D01*
X267491Y4497D01*
X267661Y4455D01*
X267831Y4370D01*
X268044Y4306D01*
X268512Y4093D01*
Y8478D01*
X271854D01*
Y-5890D01*
D02*
G37*
G36*
X300185Y4774D02*
X300355Y4753D01*
X300547Y4710D01*
X300972Y4625D01*
X301462Y4433D01*
X301696Y4327D01*
X301952Y4178D01*
X302207Y4029D01*
X302441Y3816D01*
X302675Y3603D01*
X302888Y3348D01*
X302909Y3327D01*
X302931Y3284D01*
X302995Y3199D01*
X303058Y3092D01*
X303144Y2943D01*
X303229Y2773D01*
X303335Y2560D01*
X303442Y2326D01*
X303527Y2050D01*
X303633Y1773D01*
X303718Y1453D01*
X303803Y1092D01*
X303867Y708D01*
X303931Y325D01*
X303952Y-122D01*
X303974Y-569D01*
Y-590D01*
Y-632D01*
Y-696D01*
Y-781D01*
X303952Y-1037D01*
X303931Y-1335D01*
X303867Y-1697D01*
X303803Y-2101D01*
X303697Y-2506D01*
X303569Y-2910D01*
Y-2931D01*
X303548Y-2952D01*
X303505Y-3080D01*
X303420Y-3272D01*
X303293Y-3527D01*
X303144Y-3804D01*
X302973Y-4081D01*
X302782Y-4379D01*
X302548Y-4655D01*
X302526Y-4677D01*
X302420Y-4783D01*
X302292Y-4911D01*
X302101Y-5060D01*
X301866Y-5230D01*
X301611Y-5422D01*
X301334Y-5592D01*
X301015Y-5741D01*
X300972Y-5762D01*
X300866Y-5805D01*
X300696Y-5847D01*
X300483Y-5911D01*
X300206Y-5996D01*
X299908Y-6039D01*
X299589Y-6082D01*
X299227Y-6103D01*
X299078D01*
X298908Y-6082D01*
X298695D01*
X298461Y-6060D01*
X298205Y-6018D01*
X297950Y-5975D01*
X297716Y-5911D01*
X297695D01*
X297609Y-5869D01*
X297482Y-5847D01*
X297333Y-5784D01*
X297141Y-5720D01*
X296928Y-5613D01*
X296460Y-5400D01*
Y-9700D01*
X293118D01*
Y4476D01*
X296460D01*
Y3390D01*
X296503Y3412D01*
X296588Y3497D01*
X296737Y3603D01*
X296950Y3731D01*
X297184Y3901D01*
X297439Y4072D01*
X298014Y4391D01*
X298056Y4412D01*
X298163Y4455D01*
X298333Y4519D01*
X298546Y4604D01*
X298823Y4668D01*
X299142Y4731D01*
X299482Y4774D01*
X299866Y4795D01*
X300057D01*
X300185Y4774D01*
D02*
G37*
G36*
X229305Y4774D02*
X229475Y4753D01*
X229667Y4710D01*
X230093Y4625D01*
X230582Y4433D01*
X230816Y4327D01*
X231072Y4178D01*
X231327Y4029D01*
X231561Y3816D01*
X231796Y3603D01*
X232008Y3348D01*
X232030Y3327D01*
X232051Y3284D01*
X232115Y3199D01*
X232179Y3092D01*
X232264Y2943D01*
X232349Y2773D01*
X232455Y2560D01*
X232562Y2326D01*
X232647Y2049D01*
X232753Y1773D01*
X232838Y1453D01*
X232924Y1092D01*
X232987Y708D01*
X233051Y325D01*
X233073Y-122D01*
X233094Y-569D01*
Y-590D01*
Y-632D01*
Y-696D01*
Y-781D01*
X233073Y-1037D01*
X233051Y-1335D01*
X232987Y-1697D01*
X232924Y-2101D01*
X232817Y-2506D01*
X232690Y-2910D01*
Y-2931D01*
X232668Y-2953D01*
X232626Y-3080D01*
X232541Y-3272D01*
X232413Y-3527D01*
X232264Y-3804D01*
X232094Y-4081D01*
X231902Y-4379D01*
X231668Y-4655D01*
X231647Y-4677D01*
X231540Y-4783D01*
X231412Y-4911D01*
X231221Y-5060D01*
X230987Y-5230D01*
X230731Y-5422D01*
X230455Y-5592D01*
X230135Y-5741D01*
X230093Y-5762D01*
X229986Y-5805D01*
X229816Y-5847D01*
X229603Y-5911D01*
X229326Y-5996D01*
X229028Y-6039D01*
X228709Y-6082D01*
X228347Y-6103D01*
X228198D01*
X228028Y-6082D01*
X227815D01*
X227581Y-6060D01*
X227326Y-6018D01*
X227070Y-5975D01*
X226836Y-5911D01*
X226815D01*
X226730Y-5869D01*
X226602Y-5847D01*
X226453Y-5784D01*
X226261Y-5720D01*
X226049Y-5613D01*
X225580Y-5400D01*
Y-9700D01*
X222239D01*
Y4476D01*
X225580D01*
Y3390D01*
X225623Y3412D01*
X225708Y3497D01*
X225857Y3603D01*
X226070Y3731D01*
X226304Y3901D01*
X226559Y4072D01*
X227134Y4391D01*
X227177Y4412D01*
X227283Y4455D01*
X227453Y4518D01*
X227666Y4604D01*
X227943Y4667D01*
X228262Y4731D01*
X228603Y4774D01*
X228986Y4795D01*
X229177D01*
X229305Y4774D01*
D02*
G37*
G36*
X56831Y4774D02*
X57002Y4753D01*
X57193Y4710D01*
X57619Y4625D01*
X58108Y4433D01*
X58342Y4327D01*
X58598Y4178D01*
X58853Y4029D01*
X59088Y3816D01*
X59322Y3603D01*
X59535Y3348D01*
X59556Y3327D01*
X59577Y3284D01*
X59641Y3199D01*
X59705Y3092D01*
X59790Y2943D01*
X59875Y2773D01*
X59981Y2560D01*
X60088Y2326D01*
X60173Y2049D01*
X60279Y1773D01*
X60365Y1453D01*
X60450Y1092D01*
X60514Y708D01*
X60577Y325D01*
X60599Y-122D01*
X60620Y-569D01*
Y-590D01*
Y-632D01*
Y-696D01*
Y-781D01*
X60599Y-1037D01*
X60577Y-1335D01*
X60514Y-1697D01*
X60450Y-2101D01*
X60343Y-2506D01*
X60216Y-2910D01*
Y-2931D01*
X60194Y-2953D01*
X60152Y-3080D01*
X60067Y-3272D01*
X59939Y-3527D01*
X59790Y-3804D01*
X59620Y-4081D01*
X59428Y-4379D01*
X59194Y-4655D01*
X59173Y-4677D01*
X59066Y-4783D01*
X58938Y-4911D01*
X58747Y-5060D01*
X58513Y-5230D01*
X58257Y-5422D01*
X57981Y-5592D01*
X57661Y-5741D01*
X57619Y-5762D01*
X57512Y-5805D01*
X57342Y-5847D01*
X57129Y-5911D01*
X56852Y-5996D01*
X56554Y-6039D01*
X56235Y-6082D01*
X55873Y-6103D01*
X55724D01*
X55554Y-6082D01*
X55341D01*
X55107Y-6060D01*
X54852Y-6018D01*
X54596Y-5975D01*
X54362Y-5911D01*
X54341D01*
X54256Y-5869D01*
X54128Y-5847D01*
X53979Y-5784D01*
X53787Y-5720D01*
X53575Y-5613D01*
X53106Y-5400D01*
Y-9700D01*
X49764D01*
Y4476D01*
X53106D01*
Y3390D01*
X53149Y3412D01*
X53234Y3497D01*
X53383Y3603D01*
X53596Y3731D01*
X53830Y3901D01*
X54085Y4072D01*
X54660Y4391D01*
X54703Y4412D01*
X54809Y4455D01*
X54979Y4518D01*
X55192Y4604D01*
X55469Y4667D01*
X55788Y4731D01*
X56129Y4774D01*
X56512Y4795D01*
X56704D01*
X56831Y4774D01*
D02*
G37*
G36*
X179115Y4774D02*
X179264D01*
X179413Y4753D01*
X179796Y4667D01*
X180222Y4561D01*
X180647Y4369D01*
X181073Y4135D01*
X181264Y3965D01*
X181456Y3795D01*
X181477Y3774D01*
X181499Y3752D01*
X181541Y3688D01*
X181605Y3603D01*
X181669Y3518D01*
X181754Y3390D01*
X181839Y3241D01*
X181946Y3071D01*
X182031Y2858D01*
X182116Y2645D01*
X182201Y2411D01*
X182265Y2135D01*
X182329Y1858D01*
X182371Y1539D01*
X182414Y1219D01*
Y857D01*
Y-5890D01*
X179072D01*
Y-739D01*
Y-718D01*
Y-632D01*
Y-505D01*
Y-334D01*
X179051Y-143D01*
X179030Y70D01*
X178987Y517D01*
Y538D01*
X178966Y623D01*
Y730D01*
X178944Y879D01*
X178881Y1177D01*
X178817Y1326D01*
X178774Y1453D01*
Y1475D01*
X178753Y1517D01*
X178646Y1645D01*
X178476Y1794D01*
X178242Y1943D01*
X178221D01*
X178178Y1964D01*
X178093Y2007D01*
X177987Y2028D01*
X177838Y2071D01*
X177667Y2092D01*
X177476Y2113D01*
X177093D01*
X176965Y2092D01*
X176837Y2071D01*
X176667Y2049D01*
X176326Y1964D01*
X176305D01*
X176241Y1943D01*
X176156Y1901D01*
X176028Y1858D01*
X175901Y1773D01*
X175730Y1688D01*
X175347Y1475D01*
Y-5890D01*
X172005D01*
Y4476D01*
X175347D01*
Y3348D01*
X175390Y3369D01*
X175496Y3454D01*
X175667Y3582D01*
X175879Y3752D01*
X176135Y3923D01*
X176433Y4093D01*
X176731Y4263D01*
X177029Y4412D01*
X177071Y4433D01*
X177178Y4476D01*
X177348Y4540D01*
X177561Y4604D01*
X177838Y4667D01*
X178136Y4731D01*
X178476Y4774D01*
X178838Y4795D01*
X179008D01*
X179115Y4774D01*
D02*
G37*
G36*
X156723Y4497D02*
X156999D01*
X157127Y4476D01*
Y1304D01*
X156829D01*
X156786Y1326D01*
X156744D01*
X156659Y1347D01*
X156574Y1368D01*
X156446D01*
X156318Y1390D01*
X156148Y1411D01*
X156063D01*
X155978Y1432D01*
X155871D01*
X155616Y1453D01*
X155105D01*
X154935Y1432D01*
X154743D01*
X154530Y1411D01*
X154105Y1347D01*
X154083D01*
X154019Y1326D01*
X153913Y1304D01*
X153764Y1283D01*
X153594Y1241D01*
X153402Y1177D01*
X152955Y1028D01*
Y-5890D01*
X149613D01*
Y4476D01*
X152955D01*
Y2943D01*
X152977Y2965D01*
X152998Y2986D01*
X153062Y3029D01*
X153147Y3092D01*
X153338Y3263D01*
X153594Y3454D01*
X153892Y3667D01*
X154211Y3859D01*
X154530Y4050D01*
X154850Y4199D01*
X154892Y4220D01*
X154977Y4242D01*
X155148Y4306D01*
X155339Y4369D01*
X155573Y4412D01*
X155829Y4476D01*
X156084Y4497D01*
X156340Y4518D01*
X156574D01*
X156723Y4497D01*
D02*
G37*
G36*
X197612Y4774D02*
X197867D01*
X198165Y4731D01*
X198505Y4689D01*
X198846Y4646D01*
X199187Y4561D01*
X199229D01*
X199336Y4518D01*
X199506Y4476D01*
X199740Y4391D01*
X199995Y4306D01*
X200272Y4220D01*
X200868Y3965D01*
Y1134D01*
X200379D01*
X200336Y1155D01*
X200251Y1241D01*
X200102Y1347D01*
X199910Y1496D01*
X199889Y1517D01*
X199868Y1539D01*
X199804Y1581D01*
X199740Y1645D01*
X199527Y1794D01*
X199251Y1943D01*
X199229D01*
X199187Y1986D01*
X199102Y2007D01*
X198995Y2049D01*
X198740Y2156D01*
X198420Y2262D01*
X198399D01*
X198335Y2284D01*
X198250Y2305D01*
X198122Y2347D01*
X197973Y2369D01*
X197803Y2390D01*
X197377Y2411D01*
X197250D01*
X197165Y2390D01*
X196930Y2369D01*
X196632Y2305D01*
X196292Y2198D01*
X195951Y2049D01*
X195632Y1837D01*
X195334Y1560D01*
X195313Y1517D01*
X195228Y1411D01*
X195121Y1219D01*
X194993Y964D01*
X194844Y623D01*
X194738Y240D01*
X194653Y-228D01*
X194632Y-739D01*
Y-760D01*
Y-803D01*
Y-888D01*
X194653Y-994D01*
Y-1122D01*
X194674Y-1250D01*
X194717Y-1590D01*
X194802Y-1952D01*
X194930Y-2335D01*
X195121Y-2697D01*
X195355Y-3016D01*
X195398Y-3059D01*
X195483Y-3144D01*
X195653Y-3251D01*
X195887Y-3400D01*
X196185Y-3549D01*
X196547Y-3655D01*
X196952Y-3740D01*
X197441Y-3783D01*
X197654D01*
X197803Y-3761D01*
X197973D01*
X198165Y-3719D01*
X198548Y-3655D01*
X198569D01*
X198633Y-3634D01*
X198718Y-3591D01*
X198846Y-3549D01*
X199123Y-3442D01*
X199400Y-3314D01*
X199421D01*
X199442Y-3272D01*
X199570Y-3187D01*
X199740Y-3080D01*
X199932Y-2931D01*
X199953D01*
X199974Y-2889D01*
X200081Y-2804D01*
X200230Y-2676D01*
X200379Y-2527D01*
X200868D01*
Y-5379D01*
X200826Y-5400D01*
X200741Y-5443D01*
X200570Y-5507D01*
X200357Y-5592D01*
X200123Y-5677D01*
X199846Y-5784D01*
X199527Y-5869D01*
X199208Y-5954D01*
X199165D01*
X199059Y-5996D01*
X198889Y-6018D01*
X198654Y-6060D01*
X198378Y-6103D01*
X198058Y-6124D01*
X197718Y-6167D01*
X196994D01*
X196845Y-6145D01*
X196505Y-6124D01*
X196122Y-6082D01*
X195717Y-6039D01*
X195270Y-5954D01*
X194844Y-5847D01*
X194823D01*
X194802Y-5826D01*
X194738Y-5805D01*
X194653Y-5784D01*
X194461Y-5720D01*
X194185Y-5592D01*
X193887Y-5464D01*
X193567Y-5294D01*
X193227Y-5081D01*
X192908Y-4847D01*
X192865Y-4826D01*
X192780Y-4719D01*
X192631Y-4591D01*
X192439Y-4379D01*
X192226Y-4144D01*
X192013Y-3868D01*
X191822Y-3527D01*
X191630Y-3165D01*
Y-3144D01*
X191609Y-3123D01*
X191588Y-3059D01*
X191567Y-2974D01*
X191481Y-2761D01*
X191418Y-2463D01*
X191332Y-2122D01*
X191247Y-1697D01*
X191205Y-1250D01*
X191183Y-739D01*
Y-718D01*
Y-675D01*
Y-590D01*
Y-505D01*
X191205Y-377D01*
Y-228D01*
X191247Y113D01*
X191290Y496D01*
X191375Y921D01*
X191503Y1347D01*
X191652Y1752D01*
Y1773D01*
X191673Y1794D01*
X191737Y1922D01*
X191843Y2135D01*
X192013Y2369D01*
X192205Y2645D01*
X192439Y2943D01*
X192716Y3241D01*
X193014Y3518D01*
X193057Y3539D01*
X193163Y3625D01*
X193333Y3752D01*
X193567Y3880D01*
X193844Y4050D01*
X194185Y4199D01*
X194547Y4348D01*
X194951Y4476D01*
X194972D01*
X194993Y4497D01*
X195057D01*
X195142Y4518D01*
X195355Y4582D01*
X195653Y4646D01*
X195994Y4689D01*
X196377Y4753D01*
X196803Y4774D01*
X197228Y4795D01*
X197420D01*
X197612Y4774D01*
D02*
G37*
G36*
X66963Y836D02*
X63515D01*
Y4476D01*
X66963D01*
Y836D01*
D02*
G37*
G36*
X207765Y-9700D02*
X204146D01*
X205806Y-5805D01*
X201783Y4476D01*
X205274D01*
X207743Y-2208D01*
X210106Y4476D01*
X213554D01*
X207765Y-9700D01*
D02*
G37*
G36*
X309699Y-5890D02*
X306358D01*
Y8478D01*
X309699D01*
Y-5890D01*
D02*
G37*
G36*
X289840D02*
X286392D01*
Y-2250D01*
X289840D01*
Y-5890D01*
D02*
G37*
G36*
X283838Y2369D02*
X278453Y-3421D01*
X283944D01*
Y-5890D01*
X274196D01*
Y-3783D01*
X279623Y2050D01*
X274408D01*
Y4476D01*
X283838D01*
Y2369D01*
D02*
G37*
G36*
X245652Y-5890D02*
X242311D01*
Y8478D01*
X245652D01*
Y-5890D01*
D02*
G37*
G36*
X239032D02*
X235584Y-5890D01*
Y-2250D01*
X239032Y-2250D01*
Y-5890D01*
D02*
G37*
G36*
X218961Y-5890D02*
X215512D01*
Y-2250D01*
X218961D01*
Y-5890D01*
D02*
G37*
G36*
X188821D02*
X185479D01*
Y4476D01*
X188821D01*
Y-5890D01*
D02*
G37*
G36*
X131649Y-79D02*
X135182Y4476D01*
X139035D01*
X135310Y6D01*
X139311Y-5890D01*
X135437D01*
X132543Y-1377D01*
X131649Y-2506D01*
Y-5890D01*
X128307D01*
Y8478D01*
X131649D01*
Y-79D01*
D02*
G37*
G36*
X112620Y-5890D02*
X109278D01*
Y8478D01*
X112620D01*
Y-5890D01*
D02*
G37*
G36*
X66963Y-5890D02*
X63515D01*
Y-2250D01*
X66963D01*
Y-5890D01*
D02*
G37*
G36*
X22392Y3348D02*
X22434Y3369D01*
X22541Y3454D01*
X22711Y3582D01*
X22924Y3752D01*
X23179Y3923D01*
X23477Y4093D01*
X23775Y4263D01*
X24073Y4412D01*
X24116Y4433D01*
X24222Y4476D01*
X24393Y4540D01*
X24605Y4604D01*
X24882Y4667D01*
X25180Y4731D01*
X25521Y4774D01*
X25882Y4795D01*
X26053D01*
X26159Y4774D01*
X26308D01*
X26457Y4753D01*
X26840Y4667D01*
X27266Y4561D01*
X27692Y4369D01*
X28117Y4135D01*
X28309Y3965D01*
X28501Y3795D01*
X28522Y3774D01*
X28543Y3752D01*
X28586Y3688D01*
X28650Y3603D01*
X28714Y3518D01*
X28799Y3390D01*
X28884Y3241D01*
X28990Y3071D01*
X29075Y2858D01*
X29160Y2645D01*
X29246Y2411D01*
X29309Y2135D01*
X29373Y1858D01*
X29416Y1539D01*
X29458Y1219D01*
Y857D01*
Y-5890D01*
X26117D01*
Y-739D01*
Y-718D01*
Y-632D01*
Y-505D01*
Y-334D01*
X26095Y-143D01*
X26074Y70D01*
X26031Y517D01*
Y538D01*
X26010Y623D01*
Y730D01*
X25989Y879D01*
X25925Y1177D01*
X25861Y1326D01*
X25819Y1453D01*
Y1475D01*
X25797Y1517D01*
X25691Y1645D01*
X25521Y1794D01*
X25287Y1943D01*
X25265D01*
X25223Y1964D01*
X25138Y2007D01*
X25031Y2028D01*
X24882Y2071D01*
X24712Y2092D01*
X24520Y2113D01*
X24137D01*
X24009Y2092D01*
X23882Y2071D01*
X23712Y2049D01*
X23371Y1964D01*
X23350D01*
X23286Y1943D01*
X23201Y1900D01*
X23073Y1858D01*
X22945Y1773D01*
X22775Y1688D01*
X22392Y1475D01*
Y-5890D01*
X19050D01*
Y8478D01*
X22392D01*
Y3348D01*
D02*
G37*
G36*
X144526Y4476D02*
X147613D01*
Y2220D01*
X144526D01*
Y-1463D01*
Y-1484D01*
Y-1548D01*
Y-1654D01*
Y-1782D01*
Y-2101D01*
Y-2420D01*
Y-2442D01*
Y-2484D01*
Y-2569D01*
X144548Y-2655D01*
X144590Y-2889D01*
X144675Y-3144D01*
Y-3165D01*
X144697Y-3208D01*
X144782Y-3336D01*
X144909Y-3506D01*
X145122Y-3676D01*
X145143D01*
X145186Y-3698D01*
X145250Y-3719D01*
X145356Y-3761D01*
X145505Y-3783D01*
X145654Y-3825D01*
X145846Y-3847D01*
X146187D01*
X146250Y-3825D01*
X146463Y-3804D01*
X146740Y-3740D01*
X146761D01*
X146804Y-3719D01*
X146889Y-3698D01*
X146974Y-3676D01*
X147166Y-3612D01*
X147272Y-3570D01*
X147336Y-3527D01*
X147613D01*
Y-5826D01*
X147591D01*
X147528Y-5847D01*
X147400Y-5869D01*
X147272Y-5890D01*
X147080Y-5911D01*
X146889Y-5954D01*
X146463Y-6018D01*
X146442D01*
X146357Y-6039D01*
X146229D01*
X146059Y-6060D01*
X145846Y-6082D01*
X145590D01*
X145314Y-6103D01*
X144803D01*
X144675Y-6082D01*
X144526D01*
X144335Y-6060D01*
X143909Y-5996D01*
X143441Y-5911D01*
X142972Y-5784D01*
X142504Y-5592D01*
X142313Y-5464D01*
X142121Y-5336D01*
X142079Y-5294D01*
X141972Y-5188D01*
X141908Y-5102D01*
X141823Y-4996D01*
X141738Y-4847D01*
X141653Y-4698D01*
X141568Y-4528D01*
X141482Y-4336D01*
X141397Y-4102D01*
X141334Y-3868D01*
X141270Y-3591D01*
X141227Y-3293D01*
X141206Y-2974D01*
X141185Y-2633D01*
Y2220D01*
X139822D01*
Y4476D01*
X141185D01*
Y7435D01*
X144526D01*
Y4476D01*
D02*
G37*
G36*
X44677Y4476D02*
X47764D01*
Y2220D01*
X44677D01*
Y-1463D01*
Y-1484D01*
Y-1548D01*
Y-1654D01*
Y-1782D01*
Y-2101D01*
Y-2421D01*
Y-2442D01*
Y-2484D01*
Y-2569D01*
X44699Y-2655D01*
X44741Y-2889D01*
X44826Y-3144D01*
Y-3165D01*
X44848Y-3208D01*
X44933Y-3336D01*
X45061Y-3506D01*
X45273Y-3676D01*
X45295D01*
X45337Y-3698D01*
X45401Y-3719D01*
X45507Y-3761D01*
X45656Y-3783D01*
X45806Y-3825D01*
X45997Y-3847D01*
X46338D01*
X46402Y-3825D01*
X46614Y-3804D01*
X46891Y-3740D01*
X46912D01*
X46955Y-3719D01*
X47040Y-3698D01*
X47125Y-3676D01*
X47317Y-3612D01*
X47423Y-3570D01*
X47487Y-3527D01*
X47764D01*
Y-5826D01*
X47742D01*
X47679Y-5847D01*
X47551Y-5869D01*
X47423Y-5890D01*
X47232Y-5911D01*
X47040Y-5954D01*
X46614Y-6018D01*
X46593D01*
X46508Y-6039D01*
X46380D01*
X46210Y-6060D01*
X45997Y-6082D01*
X45742D01*
X45465Y-6103D01*
X44954D01*
X44826Y-6082D01*
X44677D01*
X44486Y-6060D01*
X44060Y-5996D01*
X43592Y-5911D01*
X43124Y-5784D01*
X42655Y-5592D01*
X42464Y-5464D01*
X42272Y-5336D01*
X42230Y-5294D01*
X42123Y-5188D01*
X42059Y-5102D01*
X41974Y-4996D01*
X41889Y-4847D01*
X41804Y-4698D01*
X41719Y-4528D01*
X41634Y-4336D01*
X41549Y-4102D01*
X41485Y-3868D01*
X41421Y-3591D01*
X41378Y-3293D01*
X41357Y-2974D01*
X41336Y-2633D01*
Y2220D01*
X39973D01*
Y4476D01*
X41336D01*
Y7435D01*
X44677D01*
Y4476D01*
D02*
G37*
G36*
X36057D02*
X39143D01*
Y2220D01*
X36057D01*
Y-1463D01*
Y-1484D01*
Y-1548D01*
Y-1654D01*
Y-1782D01*
Y-2101D01*
Y-2421D01*
Y-2442D01*
Y-2484D01*
Y-2569D01*
X36078Y-2655D01*
X36121Y-2889D01*
X36206Y-3144D01*
Y-3165D01*
X36227Y-3208D01*
X36312Y-3336D01*
X36440Y-3506D01*
X36653Y-3676D01*
X36674D01*
X36717Y-3698D01*
X36781Y-3719D01*
X36887Y-3761D01*
X37036Y-3783D01*
X37185Y-3825D01*
X37377Y-3847D01*
X37717D01*
X37781Y-3825D01*
X37994Y-3804D01*
X38270Y-3740D01*
X38292D01*
X38334Y-3719D01*
X38419Y-3698D01*
X38505Y-3676D01*
X38696Y-3612D01*
X38803Y-3570D01*
X38867Y-3527D01*
X39143D01*
Y-5826D01*
X39122D01*
X39058Y-5847D01*
X38930Y-5869D01*
X38803Y-5890D01*
X38611Y-5911D01*
X38419Y-5954D01*
X37994Y-6018D01*
X37973D01*
X37887Y-6039D01*
X37760D01*
X37589Y-6060D01*
X37377Y-6082D01*
X37121D01*
X36844Y-6103D01*
X36334D01*
X36206Y-6082D01*
X36057D01*
X35865Y-6060D01*
X35440Y-5996D01*
X34971Y-5911D01*
X34503Y-5784D01*
X34035Y-5592D01*
X33843Y-5464D01*
X33652Y-5336D01*
X33609Y-5294D01*
X33503Y-5188D01*
X33439Y-5102D01*
X33354Y-4996D01*
X33268Y-4847D01*
X33183Y-4698D01*
X33098Y-4528D01*
X33013Y-4336D01*
X32928Y-4102D01*
X32864Y-3868D01*
X32800Y-3591D01*
X32758Y-3293D01*
X32736Y-2974D01*
X32715Y-2633D01*
Y2220D01*
X31353D01*
Y4476D01*
X32715D01*
Y7435D01*
X36057D01*
Y4476D01*
D02*
G37*
G36*
X121304Y4774D02*
X121496Y4753D01*
X121751Y4731D01*
X122007Y4689D01*
X122304Y4625D01*
X122922Y4476D01*
X123241Y4369D01*
X123560Y4242D01*
X123858Y4093D01*
X124156Y3923D01*
X124433Y3731D01*
X124688Y3497D01*
X124710Y3476D01*
X124752Y3433D01*
X124816Y3369D01*
X124880Y3263D01*
X124986Y3135D01*
X125093Y2965D01*
X125199Y2773D01*
X125327Y2560D01*
X125455Y2305D01*
X125561Y2028D01*
X125668Y1730D01*
X125774Y1411D01*
X125838Y1049D01*
X125902Y666D01*
X125944Y261D01*
X125966Y-185D01*
Y-1335D01*
X118345D01*
Y-1356D01*
Y-1399D01*
X118367Y-1463D01*
Y-1526D01*
X118409Y-1761D01*
X118495Y-2037D01*
X118601Y-2335D01*
X118750Y-2655D01*
X118984Y-2953D01*
X119261Y-3208D01*
X119303Y-3229D01*
X119431Y-3314D01*
X119623Y-3400D01*
X119899Y-3527D01*
X120261Y-3634D01*
X120687Y-3740D01*
X121198Y-3825D01*
X121794Y-3847D01*
X121964D01*
X122177Y-3825D01*
X122432Y-3804D01*
X122752Y-3761D01*
X123092Y-3676D01*
X123454Y-3591D01*
X123816Y-3463D01*
X123837D01*
X123858Y-3442D01*
X123986Y-3400D01*
X124156Y-3314D01*
X124390Y-3208D01*
X124646Y-3102D01*
X124901Y-2953D01*
X125157Y-2804D01*
X125391Y-2633D01*
X125774D01*
Y-5315D01*
X125753D01*
X125731Y-5336D01*
X125668Y-5358D01*
X125582Y-5379D01*
X125370Y-5464D01*
X125093Y-5571D01*
X124752Y-5677D01*
X124390Y-5762D01*
X124029Y-5869D01*
X123645Y-5954D01*
X123603D01*
X123475Y-5996D01*
X123262Y-6018D01*
X122986Y-6060D01*
X122666Y-6103D01*
X122283Y-6124D01*
X121879Y-6167D01*
X121134D01*
X120921Y-6145D01*
X120666Y-6124D01*
X120346Y-6103D01*
X120027Y-6060D01*
X119665Y-5996D01*
X118899Y-5826D01*
X118495Y-5720D01*
X118090Y-5592D01*
X117707Y-5422D01*
X117324Y-5230D01*
X116962Y-5017D01*
X116643Y-4783D01*
X116621Y-4762D01*
X116579Y-4719D01*
X116494Y-4634D01*
X116387Y-4528D01*
X116259Y-4379D01*
X116110Y-4208D01*
X115962Y-3995D01*
X115813Y-3761D01*
X115663Y-3485D01*
X115514Y-3187D01*
X115365Y-2867D01*
X115238Y-2506D01*
X115131Y-2122D01*
X115046Y-1697D01*
X115004Y-1250D01*
X114982Y-781D01*
Y-760D01*
Y-675D01*
X115004Y-526D01*
Y-356D01*
X115025Y-143D01*
X115068Y113D01*
X115110Y389D01*
X115174Y687D01*
X115259Y1006D01*
X115365Y1347D01*
X115493Y1688D01*
X115642Y2028D01*
X115834Y2347D01*
X116047Y2688D01*
X116281Y2986D01*
X116558Y3284D01*
X116579Y3305D01*
X116621Y3348D01*
X116728Y3433D01*
X116855Y3518D01*
X117004Y3625D01*
X117196Y3752D01*
X117430Y3901D01*
X117686Y4050D01*
X117984Y4178D01*
X118303Y4327D01*
X118665Y4455D01*
X119048Y4561D01*
X119452Y4646D01*
X119899Y4731D01*
X120368Y4774D01*
X120878Y4795D01*
X121112D01*
X121304Y4774D01*
D02*
G37*
G36*
X102275D02*
X102467Y4753D01*
X102722Y4731D01*
X102978Y4689D01*
X103275Y4625D01*
X103893Y4476D01*
X104212Y4369D01*
X104531Y4242D01*
X104829Y4093D01*
X105127Y3923D01*
X105404Y3731D01*
X105660Y3497D01*
X105681Y3476D01*
X105723Y3433D01*
X105787Y3369D01*
X105851Y3263D01*
X105957Y3135D01*
X106064Y2965D01*
X106170Y2773D01*
X106298Y2560D01*
X106426Y2305D01*
X106532Y2028D01*
X106639Y1730D01*
X106745Y1411D01*
X106809Y1049D01*
X106873Y666D01*
X106915Y261D01*
X106937Y-185D01*
Y-1335D01*
X99317D01*
Y-1356D01*
Y-1399D01*
X99338Y-1463D01*
Y-1526D01*
X99380Y-1761D01*
X99466Y-2037D01*
X99572Y-2335D01*
X99721Y-2655D01*
X99955Y-2953D01*
X100232Y-3208D01*
X100274Y-3229D01*
X100402Y-3314D01*
X100594Y-3400D01*
X100870Y-3527D01*
X101232Y-3634D01*
X101658Y-3740D01*
X102169Y-3825D01*
X102765Y-3847D01*
X102935D01*
X103148Y-3825D01*
X103403Y-3804D01*
X103722Y-3761D01*
X104063Y-3676D01*
X104425Y-3591D01*
X104787Y-3463D01*
X104808D01*
X104829Y-3442D01*
X104957Y-3400D01*
X105127Y-3314D01*
X105361Y-3208D01*
X105617Y-3102D01*
X105872Y-2953D01*
X106128Y-2804D01*
X106362Y-2633D01*
X106745D01*
Y-5315D01*
X106724D01*
X106702Y-5336D01*
X106639Y-5358D01*
X106553Y-5379D01*
X106341Y-5464D01*
X106064Y-5571D01*
X105723Y-5677D01*
X105361Y-5762D01*
X105000Y-5869D01*
X104616Y-5954D01*
X104574D01*
X104446Y-5996D01*
X104233Y-6018D01*
X103957Y-6060D01*
X103637Y-6103D01*
X103254Y-6124D01*
X102850Y-6167D01*
X102105D01*
X101892Y-6145D01*
X101637Y-6124D01*
X101317Y-6103D01*
X100998Y-6060D01*
X100636Y-5996D01*
X99870Y-5826D01*
X99466Y-5720D01*
X99061Y-5592D01*
X98678Y-5422D01*
X98295Y-5230D01*
X97933Y-5017D01*
X97614Y-4783D01*
X97592Y-4762D01*
X97550Y-4719D01*
X97465Y-4634D01*
X97358Y-4528D01*
X97231Y-4379D01*
X97081Y-4208D01*
X96932Y-3995D01*
X96784Y-3761D01*
X96635Y-3485D01*
X96486Y-3187D01*
X96337Y-2867D01*
X96209Y-2506D01*
X96102Y-2122D01*
X96017Y-1697D01*
X95975Y-1250D01*
X95953Y-781D01*
Y-760D01*
Y-675D01*
X95975Y-526D01*
Y-356D01*
X95996Y-143D01*
X96039Y113D01*
X96081Y389D01*
X96145Y687D01*
X96230Y1006D01*
X96337Y1347D01*
X96464Y1688D01*
X96613Y2028D01*
X96805Y2347D01*
X97018Y2688D01*
X97252Y2986D01*
X97528Y3284D01*
X97550Y3305D01*
X97592Y3348D01*
X97699Y3433D01*
X97826Y3518D01*
X97976Y3625D01*
X98167Y3752D01*
X98401Y3901D01*
X98657Y4050D01*
X98955Y4178D01*
X99274Y4327D01*
X99636Y4455D01*
X100019Y4561D01*
X100423Y4646D01*
X100870Y4731D01*
X101339Y4774D01*
X101849Y4795D01*
X102084D01*
X102275Y4774D01*
D02*
G37*
G36*
X254145Y4774D02*
X254379Y4753D01*
X254635Y4710D01*
X254933Y4668D01*
X255231Y4604D01*
X255571Y4540D01*
X255912Y4433D01*
X256252Y4306D01*
X256614Y4178D01*
X256955Y3986D01*
X257274Y3795D01*
X257593Y3561D01*
X257891Y3305D01*
X257913Y3284D01*
X257955Y3241D01*
X258019Y3156D01*
X258125Y3029D01*
X258232Y2880D01*
X258360Y2709D01*
X258508Y2497D01*
X258636Y2262D01*
X258785Y1986D01*
X258913Y1688D01*
X259041Y1347D01*
X259147Y985D01*
X259254Y602D01*
X259317Y198D01*
X259360Y-249D01*
X259381Y-718D01*
Y-739D01*
Y-824D01*
Y-952D01*
X259360Y-1143D01*
X259339Y-1356D01*
X259296Y-1612D01*
X259254Y-1888D01*
X259190Y-2186D01*
X259104Y-2484D01*
X259019Y-2825D01*
X258892Y-3165D01*
X258743Y-3485D01*
X258572Y-3825D01*
X258360Y-4144D01*
X258147Y-4442D01*
X257870Y-4740D01*
X257849Y-4762D01*
X257806Y-4804D01*
X257721Y-4868D01*
X257593Y-4975D01*
X257444Y-5081D01*
X257253Y-5209D01*
X257040Y-5336D01*
X256784Y-5464D01*
X256508Y-5613D01*
X256188Y-5741D01*
X255848Y-5869D01*
X255486Y-5975D01*
X255082Y-6082D01*
X254656Y-6145D01*
X254188Y-6188D01*
X253698Y-6209D01*
X253443D01*
X253251Y-6188D01*
X253017Y-6167D01*
X252761Y-6124D01*
X252485Y-6082D01*
X252166Y-6018D01*
X251825Y-5954D01*
X251484Y-5847D01*
X251144Y-5741D01*
X250782Y-5592D01*
X250441Y-5422D01*
X250122Y-5230D01*
X249803Y-4996D01*
X249505Y-4740D01*
X249484Y-4719D01*
X249441Y-4677D01*
X249377Y-4591D01*
X249271Y-4464D01*
X249164Y-4315D01*
X249037Y-4144D01*
X248909Y-3932D01*
X248760Y-3676D01*
X248632Y-3421D01*
X248483Y-3123D01*
X248356Y-2782D01*
X248249Y-2420D01*
X248143Y-2037D01*
X248079Y-1633D01*
X248036Y-1186D01*
X248015Y-718D01*
Y-696D01*
Y-611D01*
Y-462D01*
X248036Y-292D01*
X248057Y-79D01*
X248100Y176D01*
X248143Y453D01*
X248207Y751D01*
X248270Y1070D01*
X248377Y1411D01*
X248505Y1730D01*
X248654Y2071D01*
X248824Y2411D01*
X249015Y2731D01*
X249249Y3050D01*
X249505Y3327D01*
X249526Y3348D01*
X249569Y3390D01*
X249654Y3454D01*
X249782Y3561D01*
X249931Y3667D01*
X250122Y3795D01*
X250335Y3923D01*
X250590Y4072D01*
X250888Y4199D01*
X251186Y4327D01*
X251548Y4455D01*
X251910Y4561D01*
X252314Y4668D01*
X252740Y4731D01*
X253209Y4774D01*
X253698Y4795D01*
X253953D01*
X254145Y4774D01*
D02*
G37*
G36*
X164385Y4774D02*
X164620Y4753D01*
X164875Y4710D01*
X165173Y4667D01*
X165471Y4604D01*
X165812Y4540D01*
X166152Y4433D01*
X166493Y4306D01*
X166854Y4178D01*
X167195Y3986D01*
X167514Y3795D01*
X167833Y3561D01*
X168132Y3305D01*
X168153Y3284D01*
X168195Y3241D01*
X168259Y3156D01*
X168366Y3029D01*
X168472Y2880D01*
X168600Y2709D01*
X168749Y2496D01*
X168876Y2262D01*
X169025Y1986D01*
X169153Y1688D01*
X169281Y1347D01*
X169387Y985D01*
X169494Y602D01*
X169558Y198D01*
X169600Y-249D01*
X169622Y-718D01*
Y-739D01*
Y-824D01*
Y-952D01*
X169600Y-1143D01*
X169579Y-1356D01*
X169536Y-1612D01*
X169494Y-1888D01*
X169430Y-2186D01*
X169345Y-2484D01*
X169260Y-2825D01*
X169132Y-3165D01*
X168983Y-3485D01*
X168813Y-3825D01*
X168600Y-4144D01*
X168387Y-4442D01*
X168110Y-4740D01*
X168089Y-4762D01*
X168046Y-4804D01*
X167961Y-4868D01*
X167833Y-4975D01*
X167685Y-5081D01*
X167493Y-5209D01*
X167280Y-5336D01*
X167025Y-5464D01*
X166748Y-5613D01*
X166429Y-5741D01*
X166088Y-5869D01*
X165726Y-5975D01*
X165322Y-6082D01*
X164896Y-6145D01*
X164428Y-6188D01*
X163938Y-6209D01*
X163683D01*
X163491Y-6188D01*
X163257Y-6167D01*
X163002Y-6124D01*
X162725Y-6082D01*
X162406Y-6018D01*
X162065Y-5954D01*
X161725Y-5847D01*
X161384Y-5741D01*
X161022Y-5592D01*
X160682Y-5422D01*
X160362Y-5230D01*
X160043Y-4996D01*
X159745Y-4740D01*
X159724Y-4719D01*
X159681Y-4677D01*
X159618Y-4591D01*
X159511Y-4464D01*
X159405Y-4315D01*
X159277Y-4144D01*
X159149Y-3932D01*
X159000Y-3676D01*
X158872Y-3421D01*
X158723Y-3123D01*
X158596Y-2782D01*
X158489Y-2420D01*
X158383Y-2037D01*
X158319Y-1633D01*
X158277Y-1186D01*
X158255Y-718D01*
Y-696D01*
Y-611D01*
Y-462D01*
X158277Y-292D01*
X158298Y-79D01*
X158340Y176D01*
X158383Y453D01*
X158447Y751D01*
X158511Y1070D01*
X158617Y1411D01*
X158745Y1730D01*
X158894Y2071D01*
X159064Y2411D01*
X159256Y2731D01*
X159490Y3050D01*
X159745Y3327D01*
X159767Y3348D01*
X159809Y3390D01*
X159894Y3454D01*
X160022Y3561D01*
X160171Y3667D01*
X160362Y3795D01*
X160575Y3923D01*
X160831Y4072D01*
X161129Y4199D01*
X161427Y4327D01*
X161789Y4455D01*
X162150Y4561D01*
X162555Y4667D01*
X162980Y4731D01*
X163449Y4774D01*
X163938Y4795D01*
X164194D01*
X164385Y4774D01*
D02*
G37*
G36*
X86056Y-8891D02*
X83225D01*
X90504Y8478D01*
X93378Y8478D01*
X86056Y-8891D01*
D02*
G37*
G36*
X73008D02*
X70177D01*
X77457Y8478D01*
X80330D01*
X73008Y-8891D01*
D02*
G37*
G36*
X118356Y228563D02*
X118393Y228489D01*
Y207824D01*
Y207787D01*
Y207750D01*
X118356Y207713D01*
X97544D01*
X97507Y207750D01*
Y207824D01*
Y228489D01*
Y228526D01*
X97544Y228563D01*
X97618Y228600D01*
X118319D01*
X118356Y228563D01*
D02*
G37*
G36*
X118393Y300250D02*
Y300176D01*
Y279511D01*
Y279474D01*
X118356Y279437D01*
X118282Y279400D01*
X97581D01*
X97544Y279437D01*
X97507Y279511D01*
Y300176D01*
Y300213D01*
Y300250D01*
X97544Y300287D01*
X118356D01*
X118393Y300250D01*
D02*
G37*
%LPC*%
G36*
X267065Y2369D02*
X266937D01*
X266852Y2348D01*
X266618Y2326D01*
X266320Y2262D01*
X266001Y2177D01*
X265682Y2028D01*
X265362Y1815D01*
X265086Y1539D01*
X265064Y1496D01*
X264979Y1390D01*
X264894Y1198D01*
X264766Y943D01*
X264660Y623D01*
X264554Y219D01*
X264468Y-228D01*
X264447Y-739D01*
Y-760D01*
Y-803D01*
Y-888D01*
Y-994D01*
X264468Y-1122D01*
Y-1250D01*
X264511Y-1590D01*
X264575Y-1952D01*
X264660Y-2314D01*
X264788Y-2655D01*
X264958Y-2952D01*
X264979Y-2974D01*
X265064Y-3059D01*
X265192Y-3165D01*
X265362Y-3293D01*
X265597Y-3421D01*
X265895Y-3527D01*
X266235Y-3612D01*
X266639Y-3634D01*
X266810D01*
X266937Y-3612D01*
X267086Y-3591D01*
X267235Y-3570D01*
X267597Y-3463D01*
X267619D01*
X267682Y-3442D01*
X267789Y-3399D01*
X267895Y-3336D01*
X268193Y-3208D01*
X268512Y-3016D01*
Y2071D01*
X268491D01*
X268449Y2092D01*
X268385Y2113D01*
X268278Y2156D01*
X268044Y2220D01*
X267768Y2284D01*
X267746D01*
X267704Y2305D01*
X267640D01*
X267533Y2326D01*
X267321Y2348D01*
X267065Y2369D01*
D02*
G37*
G36*
X298376Y2262D02*
X298205D01*
X298078Y2241D01*
X297929Y2220D01*
X297758Y2199D01*
X297397Y2113D01*
X297375D01*
X297311Y2092D01*
X297226Y2050D01*
X297099Y2007D01*
X296801Y1879D01*
X296460Y1688D01*
Y-3527D01*
X296481D01*
X296524Y-3548D01*
X296588Y-3570D01*
X296673Y-3591D01*
X296886Y-3655D01*
X297162Y-3697D01*
X297397D01*
X297631Y-3719D01*
X298035D01*
X298120Y-3697D01*
X298354Y-3676D01*
X298652Y-3612D01*
X298972Y-3527D01*
X299291Y-3399D01*
X299589Y-3208D01*
X299866Y-2952D01*
X299887Y-2910D01*
X299972Y-2804D01*
X300079Y-2633D01*
X300206Y-2378D01*
X300313Y-2059D01*
X300419Y-1654D01*
X300504Y-1186D01*
X300525Y-632D01*
Y-611D01*
Y-569D01*
Y-483D01*
Y-377D01*
X300504Y-271D01*
Y-122D01*
X300462Y219D01*
X300398Y560D01*
X300291Y921D01*
X300164Y1262D01*
X299993Y1560D01*
X299972Y1581D01*
X299887Y1666D01*
X299781Y1773D01*
X299610Y1922D01*
X299376Y2050D01*
X299099Y2156D01*
X298759Y2241D01*
X298376Y2262D01*
D02*
G37*
G36*
X227496Y2262D02*
X227326D01*
X227198Y2241D01*
X227049Y2220D01*
X226879Y2198D01*
X226517Y2113D01*
X226496D01*
X226432Y2092D01*
X226347Y2049D01*
X226219Y2007D01*
X225921Y1879D01*
X225580Y1688D01*
Y-3527D01*
X225602D01*
X225644Y-3549D01*
X225708Y-3570D01*
X225793Y-3591D01*
X226006Y-3655D01*
X226283Y-3698D01*
X226517D01*
X226751Y-3719D01*
X227155D01*
X227241Y-3698D01*
X227475Y-3676D01*
X227773Y-3612D01*
X228092Y-3527D01*
X228411Y-3400D01*
X228709Y-3208D01*
X228986Y-2953D01*
X229007Y-2910D01*
X229092Y-2804D01*
X229199Y-2633D01*
X229326Y-2378D01*
X229433Y-2059D01*
X229539Y-1654D01*
X229625Y-1186D01*
X229646Y-632D01*
Y-611D01*
Y-569D01*
Y-483D01*
Y-377D01*
X229625Y-271D01*
Y-122D01*
X229582Y219D01*
X229518Y560D01*
X229412Y921D01*
X229284Y1262D01*
X229114Y1560D01*
X229092Y1581D01*
X229007Y1666D01*
X228901Y1773D01*
X228731Y1922D01*
X228496Y2049D01*
X228220Y2156D01*
X227879Y2241D01*
X227496Y2262D01*
D02*
G37*
G36*
X55022Y2262D02*
X54852D01*
X54724Y2241D01*
X54575Y2220D01*
X54405Y2198D01*
X54043Y2113D01*
X54022D01*
X53958Y2092D01*
X53873Y2049D01*
X53745Y2007D01*
X53447Y1879D01*
X53106Y1688D01*
Y-3527D01*
X53128D01*
X53170Y-3549D01*
X53234Y-3570D01*
X53319Y-3591D01*
X53532Y-3655D01*
X53809Y-3698D01*
X54043D01*
X54277Y-3719D01*
X54681D01*
X54767Y-3698D01*
X55001Y-3676D01*
X55299Y-3612D01*
X55618Y-3527D01*
X55937Y-3400D01*
X56235Y-3208D01*
X56512Y-2953D01*
X56533Y-2910D01*
X56618Y-2804D01*
X56725Y-2633D01*
X56852Y-2378D01*
X56959Y-2059D01*
X57065Y-1654D01*
X57151Y-1186D01*
X57172Y-632D01*
Y-611D01*
Y-569D01*
Y-483D01*
Y-377D01*
X57151Y-271D01*
Y-122D01*
X57108Y219D01*
X57044Y560D01*
X56938Y921D01*
X56810Y1262D01*
X56640Y1560D01*
X56618Y1581D01*
X56533Y1666D01*
X56427Y1773D01*
X56256Y1922D01*
X56022Y2049D01*
X55746Y2156D01*
X55405Y2241D01*
X55022Y2262D01*
D02*
G37*
G36*
X120602Y2709D02*
X120453D01*
X120261Y2688D01*
X120048Y2645D01*
X119793Y2582D01*
X119537Y2496D01*
X119282Y2369D01*
X119027Y2198D01*
X119005Y2177D01*
X118920Y2113D01*
X118835Y1986D01*
X118707Y1815D01*
X118580Y1602D01*
X118473Y1326D01*
X118388Y1006D01*
X118324Y623D01*
X122666D01*
Y645D01*
Y666D01*
X122645Y794D01*
X122624Y985D01*
X122581Y1198D01*
X122517Y1453D01*
X122432Y1709D01*
X122304Y1964D01*
X122134Y2177D01*
X122113Y2198D01*
X122049Y2262D01*
X121921Y2347D01*
X121751Y2454D01*
X121538Y2539D01*
X121283Y2624D01*
X120963Y2688D01*
X120602Y2709D01*
D02*
G37*
G36*
X101573D02*
X101424D01*
X101232Y2688D01*
X101019Y2645D01*
X100764Y2582D01*
X100508Y2496D01*
X100253Y2369D01*
X99998Y2198D01*
X99976Y2177D01*
X99891Y2113D01*
X99806Y1986D01*
X99678Y1815D01*
X99551Y1602D01*
X99444Y1326D01*
X99359Y1006D01*
X99295Y623D01*
X103637D01*
Y645D01*
Y666D01*
X103616Y794D01*
X103595Y985D01*
X103552Y1198D01*
X103488Y1453D01*
X103403Y1709D01*
X103275Y1964D01*
X103105Y2177D01*
X103084Y2198D01*
X103020Y2262D01*
X102892Y2347D01*
X102722Y2454D01*
X102509Y2539D01*
X102254Y2624D01*
X101935Y2688D01*
X101573Y2709D01*
D02*
G37*
G36*
X253698Y2475D02*
X253528D01*
X253400Y2454D01*
X253123Y2411D01*
X252825Y2326D01*
X252804D01*
X252761Y2305D01*
X252698Y2262D01*
X252612Y2220D01*
X252378Y2050D01*
X252251Y1943D01*
X252123Y1815D01*
X252102Y1794D01*
X252080Y1752D01*
X252017Y1666D01*
X251953Y1560D01*
X251868Y1411D01*
X251782Y1241D01*
X251697Y1049D01*
X251633Y815D01*
Y794D01*
X251612Y708D01*
X251591Y581D01*
X251548Y389D01*
X251527Y155D01*
X251484Y-100D01*
X251463Y-398D01*
Y-739D01*
Y-781D01*
Y-888D01*
Y-1037D01*
X251484Y-1250D01*
X251506Y-1463D01*
X251527Y-1718D01*
X251569Y-1973D01*
X251612Y-2208D01*
Y-2229D01*
X251633Y-2314D01*
X251676Y-2420D01*
X251719Y-2569D01*
X251868Y-2889D01*
X251974Y-3059D01*
X252080Y-3208D01*
X252102Y-3229D01*
X252123Y-3272D01*
X252187Y-3336D01*
X252272Y-3399D01*
X252485Y-3591D01*
X252761Y-3740D01*
X252783D01*
X252847Y-3761D01*
X252932Y-3783D01*
X253038Y-3804D01*
X253187Y-3846D01*
X253336Y-3868D01*
X253719Y-3889D01*
X253890D01*
X253996Y-3868D01*
X254273Y-3825D01*
X254571Y-3740D01*
X254592D01*
X254635Y-3719D01*
X254720Y-3676D01*
X254826Y-3612D01*
X255039Y-3463D01*
X255273Y-3229D01*
X255294Y-3208D01*
X255337Y-3165D01*
X255380Y-3080D01*
X255465Y-2974D01*
X255529Y-2825D01*
X255614Y-2676D01*
X255763Y-2293D01*
Y-2271D01*
X255784Y-2186D01*
X255827Y-2059D01*
X255848Y-1888D01*
X255890Y-1654D01*
X255912Y-1399D01*
X255933Y-1079D01*
Y-739D01*
Y-718D01*
Y-696D01*
Y-590D01*
Y-420D01*
X255912Y-207D01*
X255890Y49D01*
X255869Y304D01*
X255827Y560D01*
X255763Y794D01*
Y815D01*
X255741Y900D01*
X255699Y1006D01*
X255635Y1155D01*
X255486Y1475D01*
X255401Y1624D01*
X255294Y1773D01*
X255273Y1794D01*
X255252Y1837D01*
X255188Y1901D01*
X255103Y1986D01*
X254869Y2156D01*
X254720Y2241D01*
X254571Y2305D01*
X254550D01*
X254507Y2326D01*
X254422Y2369D01*
X254315Y2390D01*
X254188Y2433D01*
X254039Y2454D01*
X253698Y2475D01*
D02*
G37*
G36*
X163938Y2475D02*
X163768D01*
X163640Y2454D01*
X163364Y2411D01*
X163066Y2326D01*
X163044D01*
X163002Y2305D01*
X162938Y2262D01*
X162853Y2220D01*
X162619Y2049D01*
X162491Y1943D01*
X162363Y1815D01*
X162342Y1794D01*
X162321Y1752D01*
X162257Y1666D01*
X162193Y1560D01*
X162108Y1411D01*
X162023Y1241D01*
X161938Y1049D01*
X161874Y815D01*
Y794D01*
X161852Y708D01*
X161831Y581D01*
X161789Y389D01*
X161767Y155D01*
X161725Y-100D01*
X161703Y-398D01*
Y-739D01*
Y-781D01*
Y-888D01*
Y-1037D01*
X161725Y-1250D01*
X161746Y-1463D01*
X161767Y-1718D01*
X161810Y-1973D01*
X161852Y-2208D01*
Y-2229D01*
X161874Y-2314D01*
X161916Y-2420D01*
X161959Y-2569D01*
X162108Y-2889D01*
X162214Y-3059D01*
X162321Y-3208D01*
X162342Y-3229D01*
X162363Y-3272D01*
X162427Y-3336D01*
X162512Y-3400D01*
X162725Y-3591D01*
X163002Y-3740D01*
X163023D01*
X163087Y-3761D01*
X163172Y-3783D01*
X163279Y-3804D01*
X163428Y-3847D01*
X163577Y-3868D01*
X163960Y-3889D01*
X164130D01*
X164236Y-3868D01*
X164513Y-3825D01*
X164811Y-3740D01*
X164832D01*
X164875Y-3719D01*
X164960Y-3676D01*
X165067Y-3612D01*
X165279Y-3463D01*
X165513Y-3229D01*
X165535Y-3208D01*
X165577Y-3165D01*
X165620Y-3080D01*
X165705Y-2974D01*
X165769Y-2825D01*
X165854Y-2676D01*
X166003Y-2293D01*
Y-2271D01*
X166024Y-2186D01*
X166067Y-2059D01*
X166088Y-1888D01*
X166131Y-1654D01*
X166152Y-1399D01*
X166173Y-1080D01*
Y-739D01*
Y-718D01*
Y-696D01*
Y-590D01*
Y-420D01*
X166152Y-207D01*
X166131Y49D01*
X166109Y304D01*
X166067Y560D01*
X166003Y794D01*
Y815D01*
X165982Y900D01*
X165939Y1006D01*
X165875Y1155D01*
X165726Y1475D01*
X165641Y1624D01*
X165535Y1773D01*
X165513Y1794D01*
X165492Y1837D01*
X165428Y1901D01*
X165343Y1986D01*
X165109Y2156D01*
X164960Y2241D01*
X164811Y2305D01*
X164790D01*
X164747Y2326D01*
X164662Y2369D01*
X164556Y2390D01*
X164428Y2433D01*
X164279Y2454D01*
X163938Y2475D01*
D02*
G37*
G36*
X114727Y220082D02*
X101173D01*
X101062Y220045D01*
X100914Y220008D01*
X100766Y219934D01*
X100617Y219823D01*
X100469Y219675D01*
X100358Y219453D01*
X100321Y219194D01*
Y217120D01*
Y217083D01*
X100358Y216972D01*
X100395Y216823D01*
X100469Y216675D01*
X100580Y216527D01*
X100729Y216379D01*
X100951Y216268D01*
X101210Y216231D01*
X114764D01*
X114875Y216268D01*
X115023Y216305D01*
X115171Y216379D01*
X115320Y216490D01*
X115468Y216638D01*
X115579Y216861D01*
X115616Y217120D01*
Y219194D01*
Y219231D01*
X115579Y219342D01*
X115542Y219490D01*
X115468Y219638D01*
X115357Y219786D01*
X115209Y219934D01*
X114986Y220045D01*
X114727Y220082D01*
D02*
G37*
G36*
X108987Y297472D02*
X106876D01*
X106765Y297435D01*
X106617Y297398D01*
X106469Y297324D01*
X106320Y297213D01*
X106172Y297065D01*
X106061Y296843D01*
X106024Y296583D01*
Y291880D01*
Y291843D01*
X105987Y291806D01*
X105913Y291769D01*
X101136D01*
X101025Y291732D01*
X100877Y291695D01*
X100729Y291621D01*
X100580Y291510D01*
X100432Y291362D01*
X100321Y291140D01*
X100284Y290880D01*
Y288806D01*
Y288769D01*
X100321Y288658D01*
X100358Y288510D01*
X100432Y288362D01*
X100543Y288214D01*
X100691Y288066D01*
X100914Y287955D01*
X101173Y287918D01*
X105987D01*
X106024Y287881D01*
Y287806D01*
Y283066D01*
Y283029D01*
X106061Y282918D01*
X106098Y282770D01*
X106172Y282622D01*
X106284Y282474D01*
X106432Y282326D01*
X106654Y282215D01*
X106913Y282178D01*
X109024D01*
X109135Y282215D01*
X109283Y282252D01*
X109431Y282326D01*
X109579Y282437D01*
X109728Y282585D01*
X109839Y282807D01*
X109876Y283066D01*
Y287806D01*
Y287844D01*
Y287881D01*
X109913Y287918D01*
X114727D01*
X114838Y287955D01*
X114986Y287992D01*
X115134Y288066D01*
X115283Y288177D01*
X115431Y288325D01*
X115542Y288547D01*
X115579Y288806D01*
Y290880D01*
Y290917D01*
X115542Y291028D01*
X115505Y291177D01*
X115431Y291325D01*
X115320Y291473D01*
X115171Y291621D01*
X114949Y291732D01*
X114690Y291769D01*
X109950D01*
X109913Y291806D01*
X109876Y291880D01*
Y296583D01*
Y296620D01*
X109839Y296731D01*
X109802Y296880D01*
X109728Y297028D01*
X109616Y297176D01*
X109468Y297324D01*
X109246Y297435D01*
X108987Y297472D01*
D02*
G37*
%LPD*%
D10*
X182780Y54194D02*
G03*
X223771Y54000I20420J-16094D01*
G01*
X100230Y54194D02*
G03*
X141221Y54000I20420J-16094D01*
G01*
X304670Y272504D02*
G03*
X304670Y235496I-23130J-18504D01*
G01*
X25530D02*
G03*
X25530Y272504I23130J18504D01*
G01*
X182900Y54100D02*
X223771D01*
X100350D02*
X141221D01*
X120650Y228600D02*
Y279400D01*
X102950D02*
X120650D01*
X95250Y228600D02*
X120650D01*
X95250D02*
Y279400D01*
X102950D01*
X304670Y235496D02*
Y272504D01*
X25530Y235496D02*
Y272504D01*
D11*
X298868Y63500D02*
G03*
X298868Y63500I-26000J0D01*
G01*
X76982D02*
G03*
X76982Y63500I-26000J0D01*
G01*
X224790Y163322D02*
X245110D01*
X224790Y148200D02*
Y163322D01*
X245110Y148200D02*
Y163322D01*
X224790Y116100D02*
Y131200D01*
X245110Y116100D02*
Y131200D01*
X224790Y116100D02*
X245110D01*
X199390Y163322D02*
X219710D01*
X199390Y148200D02*
Y163322D01*
X219710Y148200D02*
Y163322D01*
X199390Y116100D02*
Y131200D01*
X219710Y116100D02*
Y131200D01*
X199390Y116100D02*
X219710D01*
X173990Y163322D02*
X194310D01*
X173990Y148200D02*
Y163322D01*
X194310Y148200D02*
Y163322D01*
X173990Y116100D02*
Y131200D01*
X194310Y116100D02*
Y131200D01*
X173990Y116100D02*
X194310D01*
X184150Y80010D02*
X198120D01*
X184150Y110490D02*
X198120D01*
Y92710D02*
Y97790D01*
X184150Y80010D02*
Y87630D01*
Y102870D02*
Y110490D01*
X135890Y163322D02*
X156210D01*
X135890Y148200D02*
Y163322D01*
X156210Y148200D02*
Y163322D01*
X135890Y116100D02*
Y131200D01*
X156210Y116100D02*
Y131200D01*
X135890Y116100D02*
X156210D01*
X110490Y163322D02*
X130810D01*
X110490Y148200D02*
Y163322D01*
X130810Y148200D02*
Y163322D01*
X110490Y116100D02*
Y131200D01*
X130810Y116100D02*
Y131200D01*
X110490Y116100D02*
X130810D01*
X125730Y110490D02*
X139700D01*
X125730Y80010D02*
X139700D01*
X125730Y92710D02*
Y97790D01*
X139700Y102870D02*
Y110490D01*
Y80010D02*
Y87630D01*
X85090Y163322D02*
X105410D01*
X85090Y148200D02*
Y163322D01*
X105410Y148200D02*
Y163322D01*
X85090Y116100D02*
Y131200D01*
X105410Y116100D02*
Y131200D01*
X85090Y116100D02*
X105410D01*
X285212Y124750D02*
Y192750D01*
X313212Y124750D02*
Y192750D01*
X285212Y124750D02*
X313212D01*
X285212Y192750D02*
X313212D01*
X253462Y124750D02*
Y192750D01*
X281462Y124750D02*
Y192750D01*
X253462Y124750D02*
X281462D01*
X253462Y192750D02*
X281462D01*
X183134Y196850D02*
X200660D01*
X183134Y171450D02*
X200660D01*
X183134D02*
Y196850D01*
X236220Y173990D02*
Y194310D01*
X233680Y171450D02*
X236220Y173990D01*
X218440Y171450D02*
X233680D01*
Y196850D02*
X236220Y194310D01*
X218440Y196850D02*
X233680D01*
X129540Y171450D02*
X147066D01*
X129540Y196850D02*
X147066D01*
Y171450D02*
Y196850D01*
X93980Y173990D02*
Y194310D01*
X96520Y196850D01*
X111760D01*
X93980Y173990D02*
X96520Y171450D01*
X111760D01*
X50262Y124750D02*
Y192750D01*
X78262Y124750D02*
Y192750D01*
X50262Y124750D02*
X78262D01*
X50262Y192750D02*
X78262D01*
X18512Y124750D02*
Y192750D01*
X46512Y124750D02*
Y192750D01*
X18512Y124750D02*
X46512D01*
X18512Y192750D02*
X46512D01*
D12*
X250698Y76200D02*
G03*
X250698Y51300I22825J-12450D01*
G01*
X73152Y50800D02*
G03*
X73152Y75700I-22825J12450D01*
G01*
D13*
X193782Y86634D02*
G03*
X193782Y86634I-1250J0D01*
G01*
X132568Y103866D02*
G03*
X132568Y103866I-1250J0D01*
G01*
X277114Y47244D02*
X287274D01*
X282194Y42164D02*
Y52324D01*
X36576Y79756D02*
X46736D01*
X41656Y74676D02*
Y84836D01*
D14*
X181132Y57983D02*
Y61315D01*
X180299Y62148D01*
X178633D01*
X177800Y61315D01*
Y57983D01*
X178633Y57150D01*
X180299D01*
X179466Y58816D02*
X181132Y57150D01*
X180299D02*
X181132Y57983D01*
X182798Y61315D02*
X183631Y62148D01*
X185298D01*
X186131Y61315D01*
Y60482D01*
X185298Y59649D01*
X184464D01*
X185298D01*
X186131Y58816D01*
Y57983D01*
X185298Y57150D01*
X183631D01*
X182798Y57983D01*
X97312D02*
Y61315D01*
X96479Y62148D01*
X94813D01*
X93980Y61315D01*
Y57983D01*
X94813Y57150D01*
X96479D01*
X95646Y58816D02*
X97312Y57150D01*
X96479D02*
X97312Y57983D01*
X101477Y57150D02*
Y62148D01*
X98978Y59649D01*
X102311D01*
X295432Y42265D02*
X294599Y43098D01*
X292933D01*
X292100Y42265D01*
Y38933D01*
X292933Y38100D01*
X294599D01*
X295432Y38933D01*
X297098Y42265D02*
X297931Y43098D01*
X299597D01*
X300431Y42265D01*
Y41432D01*
X299597Y40599D01*
X298764D01*
X299597D01*
X300431Y39766D01*
Y38933D01*
X299597Y38100D01*
X297931D01*
X297098Y38933D01*
X12700Y196850D02*
Y201848D01*
X15199D01*
X16032Y201015D01*
Y199349D01*
X15199Y198516D01*
X12700D01*
X14366D02*
X16032Y196850D01*
X17698Y201015D02*
X18531Y201848D01*
X20198D01*
X21031Y201015D01*
Y200182D01*
X20198Y199349D01*
X21031Y198516D01*
Y197683D01*
X20198Y196850D01*
X18531D01*
X17698Y197683D01*
Y198516D01*
X18531Y199349D01*
X17698Y200182D01*
Y201015D01*
X18531Y199349D02*
X20198D01*
X309880Y196850D02*
Y201848D01*
X312379D01*
X313212Y201015D01*
Y199349D01*
X312379Y198516D01*
X309880D01*
X311546D02*
X313212Y196850D01*
X314878Y201848D02*
X318211D01*
Y201015D01*
X314878Y197683D01*
Y196850D01*
X248920D02*
Y201848D01*
X251419D01*
X252252Y201015D01*
Y199349D01*
X251419Y198516D01*
X248920D01*
X250586D02*
X252252Y196850D01*
X257251Y201848D02*
X255585Y201015D01*
X253918Y199349D01*
Y197683D01*
X254751Y196850D01*
X256418D01*
X257251Y197683D01*
Y198516D01*
X256418Y199349D01*
X253918D01*
X48660Y196850D02*
Y201848D01*
X51159D01*
X51992Y201015D01*
Y199349D01*
X51159Y198516D01*
X48660D01*
X50326D02*
X51992Y196850D01*
X56991Y201848D02*
X53658D01*
Y199349D01*
X55325Y200182D01*
X56157D01*
X56991Y199349D01*
Y197683D01*
X56157Y196850D01*
X54491D01*
X53658Y197683D01*
X231140Y137160D02*
Y142158D01*
X233639D01*
X234472Y141325D01*
Y139659D01*
X233639Y138826D01*
X231140D01*
X232806D02*
X234472Y137160D01*
X238638D02*
Y142158D01*
X236138Y139659D01*
X239471D01*
X90170Y137160D02*
Y142158D01*
X92669D01*
X93502Y141325D01*
Y139659D01*
X92669Y138826D01*
X90170D01*
X91836D02*
X93502Y137160D01*
X95168Y141325D02*
X96001Y142158D01*
X97668D01*
X98501Y141325D01*
Y140492D01*
X97668Y139659D01*
X96834D01*
X97668D01*
X98501Y138826D01*
Y137993D01*
X97668Y137160D01*
X96001D01*
X95168Y137993D01*
X142240Y137160D02*
Y142158D01*
X144739D01*
X145572Y141325D01*
Y139659D01*
X144739Y138826D01*
X142240D01*
X143906D02*
X145572Y137160D01*
X150571D02*
X147238D01*
X150571Y140492D01*
Y141325D01*
X149738Y142158D01*
X148071D01*
X147238Y141325D01*
X180340Y137160D02*
Y142158D01*
X182839D01*
X183672Y141325D01*
Y139659D01*
X182839Y138826D01*
X180340D01*
X182006D02*
X183672Y137160D01*
X185338D02*
X187005D01*
X186171D01*
Y142158D01*
X185338Y141325D01*
X131602Y71953D02*
Y75285D01*
X130769Y76118D01*
X129103D01*
X128270Y75285D01*
Y71953D01*
X129103Y71120D01*
X130769D01*
X129936Y72786D02*
X131602Y71120D01*
X130769D02*
X131602Y71953D01*
X136601Y71120D02*
X133268D01*
X136601Y74452D01*
Y75285D01*
X135767Y76118D01*
X134101D01*
X133268Y75285D01*
X191292Y71953D02*
Y75285D01*
X190459Y76118D01*
X188793D01*
X187960Y75285D01*
Y71953D01*
X188793Y71120D01*
X190459D01*
X189626Y72786D02*
X191292Y71120D01*
X190459D02*
X191292Y71953D01*
X192958Y71120D02*
X194625D01*
X193791D01*
Y76118D01*
X192958Y75285D01*
X18512Y284398D02*
Y279400D01*
X21011D01*
X21844Y280233D01*
Y283565D01*
X21011Y284398D01*
X18512D01*
X26010Y279400D02*
Y284398D01*
X23510Y281899D01*
X26843D01*
X303130Y285668D02*
Y280670D01*
X305629D01*
X306462Y281503D01*
Y284835D01*
X305629Y285668D01*
X303130D01*
X308128Y284835D02*
X308961Y285668D01*
X310627D01*
X311461Y284835D01*
Y284002D01*
X310627Y283169D01*
X309795D01*
X310627D01*
X311461Y282336D01*
Y281503D01*
X310627Y280670D01*
X308961D01*
X308128Y281503D01*
X205740Y186608D02*
Y181610D01*
X208239D01*
X209072Y182443D01*
Y185775D01*
X208239Y186608D01*
X205740D01*
X214071Y181610D02*
X210738D01*
X214071Y184942D01*
Y185775D01*
X213237Y186608D01*
X211571D01*
X210738Y185775D01*
X118110Y186608D02*
Y181610D01*
X120609D01*
X121442Y182443D01*
Y185775D01*
X120609Y186608D01*
X118110D01*
X123108Y181610D02*
X124775D01*
X123941D01*
Y186608D01*
X123108Y185775D01*
X86005Y270032D02*
X85172Y269199D01*
Y267533D01*
X86005Y266700D01*
X89337D01*
X90170Y267533D01*
Y269199D01*
X89337Y270032D01*
X90170Y271698D02*
X85172D01*
X90170Y275031D01*
X85172D01*
X90170Y276697D02*
Y278363D01*
Y277530D01*
X85172D01*
X86005Y276697D01*
X76484Y42265D02*
X75651Y43098D01*
X73985D01*
X73152Y42265D01*
Y38933D01*
X73985Y38100D01*
X75651D01*
X76484Y38933D01*
X80649Y38100D02*
Y43098D01*
X78150Y40599D01*
X81483D01*
X209072Y141325D02*
X208239Y142158D01*
X206573D01*
X205740Y141325D01*
Y137993D01*
X206573Y137160D01*
X208239D01*
X209072Y137993D01*
X214071Y137160D02*
X210738D01*
X214071Y140492D01*
Y141325D01*
X213237Y142158D01*
X211571D01*
X210738Y141325D01*
X120172Y142595D02*
X119339Y143428D01*
X117673D01*
X116840Y142595D01*
Y139263D01*
X117673Y138430D01*
X119339D01*
X120172Y139263D01*
X121838Y138430D02*
X123504D01*
X122671D01*
Y143428D01*
X121838Y142595D01*
M02*
