G04*
G04 #@! TF.GenerationSoftware,Altium Limited,Altium Designer,18.1.6 (161)*
G04*
G04 Layer_Physical_Order=1*
G04 Layer_Color=255*
%FSLAX44Y44*%
%MOMM*%
G71*
G01*
G75*
%ADD10C,0.2540*%
%ADD15R,1.6510X1.2700*%
%ADD16R,1.4000X0.8000*%
%ADD17R,1.2700X1.9000*%
%ADD31C,0.9000*%
%ADD32C,0.6350*%
%ADD33R,1.0000X1.5000*%
G04:AMPARAMS|DCode=34|XSize=1mm|YSize=1.5mm|CornerRadius=0mm|HoleSize=0mm|Usage=FLASHONLY|Rotation=180.000|XOffset=0mm|YOffset=0mm|HoleType=Round|Shape=Octagon|*
%AMOCTAGOND34*
4,1,8,0.2500,-0.7500,-0.2500,-0.7500,-0.5000,-0.5000,-0.5000,0.5000,-0.2500,0.7500,0.2500,0.7500,0.5000,0.5000,0.5000,-0.5000,0.2500,-0.7500,0.0*
%
%ADD34OCTAGOND34*%

%ADD35O,1.6000X2.0000*%
%ADD36R,2.0000X2.0000*%
%ADD37P,2.1648X8X292.5*%
%ADD38R,2.1000X2.1000*%
%ADD39C,2.1000*%
%ADD40C,2.0000*%
%ADD41C,8.0000*%
%ADD42C,1.5000*%
D10*
X29373Y146050D02*
Y152715D01*
Y149382D01*
X39370D01*
X29373Y161045D02*
Y157713D01*
X31039Y156047D01*
X37704D01*
X39370Y157713D01*
Y161045D01*
X37704Y162711D01*
X31039D01*
X29373Y161045D01*
X39370Y166044D02*
X29373D01*
Y171042D01*
X31039Y172708D01*
X34372D01*
X36038Y171042D01*
Y166044D01*
D15*
X234950Y124460D02*
D03*
Y154940D02*
D03*
X209550Y124460D02*
D03*
Y154940D02*
D03*
X184150Y124460D02*
D03*
Y154940D02*
D03*
X146050Y124460D02*
D03*
Y154940D02*
D03*
X120650Y124460D02*
D03*
Y154940D02*
D03*
X95250Y124460D02*
D03*
Y154940D02*
D03*
D16*
X177500Y95250D02*
D03*
X203500Y104250D02*
D03*
Y86250D02*
D03*
X146350Y95250D02*
D03*
X120350Y86250D02*
D03*
Y104250D02*
D03*
D17*
X193050Y184150D02*
D03*
X226050D02*
D03*
X137150D02*
D03*
X104150D02*
D03*
D31*
X193050D02*
X212100Y203200D01*
X247650D01*
X80540Y109960D02*
X104140Y86360D01*
X80540Y109960D02*
Y114058D01*
X76200Y118398D02*
X80540Y114058D01*
X76200Y118398D02*
Y191450D01*
X107950Y223200D01*
X119400Y86250D02*
X120350D01*
X127000Y19050D02*
X133350Y25400D01*
X69850Y19050D02*
X127000D01*
X40800Y48100D02*
X69850Y19050D01*
X40800Y48100D02*
Y63500D01*
X254950Y210500D02*
X260350D01*
X247650Y203200D02*
X254950Y210500D01*
X190500Y38100D02*
Y49850D01*
X185740Y54610D02*
X190500Y49850D01*
X107950Y54610D02*
X185740D01*
X104140Y57470D02*
Y86360D01*
Y57470D02*
X107950Y53660D01*
Y38100D02*
Y53660D01*
Y223200D02*
Y241300D01*
X133350Y25400D02*
Y38100D01*
X104140Y86360D02*
X119290D01*
X119400Y86250D01*
X137150Y174160D02*
Y184150D01*
Y174160D02*
X146050Y165260D01*
Y154940D02*
Y165260D01*
X193050Y174000D02*
Y184150D01*
X184150Y165100D02*
X193050Y174000D01*
X184150Y154940D02*
Y165100D01*
X137150Y184150D02*
X193050D01*
D32*
X136300Y104550D02*
X146050Y114300D01*
X120650Y104550D02*
X136300D01*
X146050Y114300D02*
Y124460D01*
X157480Y74676D02*
X219456D01*
X146350Y85806D02*
X157480Y74676D01*
X146350Y85806D02*
Y95250D01*
X234950Y90170D02*
Y124460D01*
X219456Y74676D02*
X234950Y90170D01*
X203500Y104250D02*
X219600D01*
X177500Y95250D02*
Y101900D01*
X165100Y114300D02*
X177500Y101900D01*
X165100Y114300D02*
Y133350D01*
X184150Y107950D02*
Y124460D01*
Y107950D02*
X190500Y101600D01*
Y95250D02*
Y101600D01*
Y95250D02*
X199500Y86250D01*
X203500D01*
X209550Y124460D02*
X234950D01*
X184150D02*
Y129540D01*
X209550Y154940D01*
X234950D02*
Y175250D01*
X226050Y184150D02*
X234950Y175250D01*
X95250D02*
X104150Y184150D01*
X95250Y154940D02*
Y175250D01*
X158750Y139700D02*
X165100Y133350D01*
X120350Y139700D02*
X158750D01*
X120650Y140000D02*
Y154940D01*
X95250Y124460D02*
X110490Y139700D01*
X120350D01*
X120650Y140000D01*
X95250Y124460D02*
Y127000D01*
X120650Y104965D02*
Y124460D01*
X120350Y104250D02*
X120650Y104550D01*
D33*
X215900Y38100D02*
D03*
X133350D02*
D03*
D34*
X203200D02*
D03*
X190500D02*
D03*
X120650D02*
D03*
X107950D02*
D03*
D35*
X263050Y63500D02*
D03*
X283050D02*
D03*
X60800D02*
D03*
X40800D02*
D03*
D36*
X107950Y266700D02*
D03*
D37*
Y241300D02*
D03*
D38*
X266700Y254000D02*
D03*
X63500D02*
D03*
D39*
X296780D02*
D03*
X33420D02*
D03*
D40*
X298450Y107000D02*
D03*
Y210500D02*
D03*
X266700Y107000D02*
D03*
Y210500D02*
D03*
X63500Y107000D02*
D03*
Y210500D02*
D03*
X31750Y107000D02*
D03*
Y210500D02*
D03*
X139700Y241300D02*
D03*
Y266700D02*
D03*
D41*
X203200Y254000D02*
D03*
D42*
X104140Y86360D02*
D03*
X219600Y104250D02*
D03*
M02*
