G04*
G04 #@! TF.GenerationSoftware,Altium Limited,Altium Designer,18.1.6 (161)*
G04*
G04 Layer_Color=16711935*
%FSLAX44Y44*%
%MOMM*%
G71*
G01*
G75*
%ADD21R,1.2032X1.7032*%
G04:AMPARAMS|DCode=22|XSize=1.2032mm|YSize=1.7032mm|CornerRadius=0mm|HoleSize=0mm|Usage=FLASHONLY|Rotation=180.000|XOffset=0mm|YOffset=0mm|HoleType=Round|Shape=Octagon|*
%AMOCTAGOND22*
4,1,8,0.3008,-0.8516,-0.3008,-0.8516,-0.6016,-0.5508,-0.6016,0.5508,-0.3008,0.8516,0.3008,0.8516,0.6016,0.5508,0.6016,-0.5508,0.3008,-0.8516,0.0*
%
%ADD22OCTAGOND22*%

%ADD23O,1.8032X2.2032*%
%ADD24R,2.2032X2.2032*%
%ADD25P,2.3848X8X292.5*%
%ADD26R,2.3032X2.3032*%
%ADD27C,2.3032*%
%ADD28C,2.2032*%
%ADD29C,8.2032*%
%ADD30C,1.7032*%
D21*
X215900Y38100D02*
D03*
X133350D02*
D03*
D22*
X203200D02*
D03*
X190500D02*
D03*
X120650D02*
D03*
X107950D02*
D03*
D23*
X263050Y63500D02*
D03*
X283050D02*
D03*
X60800D02*
D03*
X40800D02*
D03*
D24*
X107950Y266700D02*
D03*
D25*
Y241300D02*
D03*
D26*
X266700Y254000D02*
D03*
X63500D02*
D03*
D27*
X296780D02*
D03*
X33420D02*
D03*
D28*
X298450Y107000D02*
D03*
Y210500D02*
D03*
X266700Y107000D02*
D03*
Y210500D02*
D03*
X63500Y107000D02*
D03*
Y210500D02*
D03*
X31750Y107000D02*
D03*
Y210500D02*
D03*
X139700Y241300D02*
D03*
Y266700D02*
D03*
D29*
X203200Y254000D02*
D03*
D30*
X104140Y86360D02*
D03*
X219600Y104250D02*
D03*
M02*
