G04*
G04 #@! TF.GenerationSoftware,Altium Limited,Altium Designer,18.1.6 (161)*
G04*
G04 Layer_Physical_Order=2*
G04 Layer_Color=16711680*
%FSLAX44Y44*%
%MOMM*%
G71*
G01*
G75*
%ADD31C,0.9000*%
%ADD32C,0.6350*%
%ADD33R,1.0000X1.5000*%
G04:AMPARAMS|DCode=34|XSize=1mm|YSize=1.5mm|CornerRadius=0mm|HoleSize=0mm|Usage=FLASHONLY|Rotation=180.000|XOffset=0mm|YOffset=0mm|HoleType=Round|Shape=Octagon|*
%AMOCTAGOND34*
4,1,8,0.2500,-0.7500,-0.2500,-0.7500,-0.5000,-0.5000,-0.5000,0.5000,-0.2500,0.7500,0.2500,0.7500,0.5000,0.5000,0.5000,-0.5000,0.2500,-0.7500,0.0*
%
%ADD34OCTAGOND34*%

%ADD35O,1.6000X2.0000*%
%ADD36R,2.0000X2.0000*%
%ADD37P,2.1648X8X292.5*%
%ADD38R,2.1000X2.1000*%
%ADD39C,2.1000*%
%ADD40C,2.0000*%
%ADD41C,8.0000*%
%ADD42C,1.5000*%
D31*
X104140Y86360D02*
X201710D01*
X219600Y104250D01*
X76200Y266700D02*
X107950D01*
X63500Y254000D02*
X76200Y266700D01*
X63500Y210500D02*
Y254000D01*
X298450Y107000D02*
Y118980D01*
X290430Y127000D02*
X298450Y118980D01*
X254000Y127000D02*
X290430D01*
X283050Y63500D02*
Y79850D01*
X298450Y95250D01*
Y107000D01*
X241300Y114300D02*
X254000Y127000D01*
X241300Y82550D02*
Y114300D01*
X215900Y57150D02*
X241300Y82550D01*
X215900Y38100D02*
Y57150D01*
X266700Y89850D02*
Y107000D01*
X263050Y86200D02*
X266700Y89850D01*
X296780Y212170D02*
Y254000D01*
X266700Y210500D02*
Y254000D01*
X77150Y196850D02*
X253050D01*
X266700Y210500D01*
X120650Y25400D02*
Y38100D01*
Y25400D02*
X127000Y19050D01*
X234950D01*
X263050Y47150D01*
X63500Y210500D02*
X77150Y196850D01*
X263050Y47150D02*
Y63500D01*
Y86200D01*
X31750Y95250D02*
Y107000D01*
Y95250D02*
X40800Y86200D01*
Y63500D02*
Y86200D01*
X203200Y38100D02*
Y55660D01*
X195360Y63500D02*
X203200Y55660D01*
X60800Y63500D02*
X195360D01*
X60800D02*
Y88900D01*
X63500Y91600D01*
Y107000D01*
X31750Y210500D02*
Y245980D01*
D32*
X296780Y212170D02*
X298450Y210500D01*
X31750Y245980D02*
X33420Y247650D01*
D33*
X215900Y38100D02*
D03*
X133350D02*
D03*
D34*
X203200D02*
D03*
X190500D02*
D03*
X120650D02*
D03*
X107950D02*
D03*
D35*
X263050Y63500D02*
D03*
X283050D02*
D03*
X60800D02*
D03*
X40800D02*
D03*
D36*
X107950Y266700D02*
D03*
D37*
Y241300D02*
D03*
D38*
X266700Y254000D02*
D03*
X63500D02*
D03*
D39*
X296780D02*
D03*
X33420D02*
D03*
D40*
X298450Y107000D02*
D03*
Y210500D02*
D03*
X266700Y107000D02*
D03*
Y210500D02*
D03*
X63500Y107000D02*
D03*
Y210500D02*
D03*
X31750Y107000D02*
D03*
Y210500D02*
D03*
X139700Y241300D02*
D03*
Y266700D02*
D03*
D41*
X203200Y254000D02*
D03*
D42*
X104140Y86360D02*
D03*
X219600Y104250D02*
D03*
M02*
