M48
;Layer_Color=9474304
;FILE_FORMAT=4:4
METRIC,LZ
;TYPE=PLATED
T1F00S00C0.7000
T2F00S00C0.8000
T3F00S00C1.0000
T4F00S00C1.5000
T5F00S00C6.0000
%
T01
X0010795Y000381
X0012065
X0013335
X0010414Y0008636
X002196Y0010425
X002159Y000381
X002032
X001905
T02
X000408Y000635
X000608
X0026305
X0028305
X0029678Y00254
X002667
X000635
X0003342
T03
X0003175Y00107
X000635
Y002105
X0003175
X0010795Y002413
X002667Y002105
X0029845
Y00107
X002667
X0010795Y002667
T04
X001397Y002413
Y002667
T05
X002032Y00254
M30
